<svg width="49" height="61" viewBox="0 0 49 61" fill="none" xmlns="http://www.w3.org/2000/svg">
<g clip-path="url(#clip0_1818_10623)">
<path d="M43.9193 5.06328L0 0V48.8323H49L43.9193 5.06328ZM5.09394 5.02627L23.2278 6.92731L23.5993 13.0826L16.4492 12.4401L17.0514 26.6807L5.37252 26.0382L5.09394 5.02627ZM5.64844 43.6659L5.44946 28.7906L19.8717 29.4913L20.5747 43.8642L5.64844 43.6659ZM22.3735 26.9954L19.0253 26.8103L34.0233 12.136L25.9791 11.3772L25.7032 7.2631L36.618 8.40531L40.6083 8.82307L41.0274 12.7997L42.1736 23.6771L38.0454 23.4022L37.268 15.2269L22.5486 30.1523L22.3735 26.9954ZM22.5991 32.2622L36.8939 32.8624L36.2519 25.7368L42.4309 26.1096L43.6487 37.6666L44.3359 44.1814L23.2438 43.9012L22.5991 32.2622Z" fill="white"/>
<path d="M46.0648 56.9815L45.3803 58.708H46.7732L46.0648 56.9815ZM45.5713 55.0619H46.5503L48.9514 60.9211H47.6805L47.2003 59.7709H44.9478L44.4889 60.9211H43.2207L45.5713 55.0619ZM36.4473 55.0619H37.7288L39.2145 58.9566L40.7002 55.0619H41.9843L39.7637 60.9211H38.6627L36.4473 55.0619ZM32.9718 55.0619H34.2347V60.9211H32.9718V55.0619ZM26.7237 55.0619H30.6769V56.3073H29.3291V60.9211H28.0609V56.3073H26.7211L26.7237 55.0619ZM22.3833 56.9815L21.6988 58.708H23.0917L22.3833 56.9815ZM21.8898 55.0619H22.8688L25.2698 60.9211H23.999L23.5188 59.7709H21.2663L20.8073 60.9211H19.5418L21.8898 55.0619ZM13.9544 55.0619H17.2628V56.2227H15.2199V57.4045H17.2628V58.5467H15.2199V59.7604H17.2628V60.9211H13.9544V55.0619ZM8.35106 56.1063V57.6319H8.62433C9.28495 57.6319 9.61393 57.3622 9.61393 56.8255C9.61393 56.6034 9.52903 56.4289 9.35658 56.2993C9.18413 56.1698 8.94801 56.1063 8.6429 56.1063H8.35106ZM7.07492 55.0619H9.00903C9.59801 55.0619 10.0623 55.2179 10.4046 55.5273C10.7468 55.8366 10.9166 56.2544 10.9166 56.7806C10.9166 57.082 10.8397 57.394 10.6831 57.7165C10.5266 58.0417 10.2374 58.2956 9.81557 58.4806L11.4578 60.9211H10.0066L8.48372 58.6552H8.34045V60.9211H7.07227L7.07492 55.0619ZM4.6155 55.3739V56.807C3.97876 56.4236 3.42161 56.2306 2.94405 56.2306C2.4665 56.2306 2.08445 56.3945 1.79792 56.7197C1.51138 57.0476 1.36812 57.4865 1.36812 58.0391C1.36812 58.5626 1.51669 58.983 1.8218 59.295C2.12159 59.6096 2.52487 59.7656 3.03161 59.7656C3.47202 59.7656 3.99999 59.5885 4.6155 59.2342V60.654C3.9257 60.8841 3.35263 60.9977 2.89099 60.9977C2.10037 60.9977 1.42914 60.7096 0.87464 60.1305C0.322797 59.5515 0.046875 58.8455 0.046875 58.0127C0.046875 57.1639 0.328103 56.4474 0.890559 55.8604C1.45302 55.2735 2.13751 54.98 2.94405 54.98C3.46406 54.9826 4.02121 55.1122 4.6155 55.3739Z" fill="white"/>
</g>
<defs>
<clipPath id="clip0_1818_10623">
<rect width="49" height="61" fill="white"/>
</clipPath>
</defs>
</svg>
