<svg width="766" height="434" viewBox="0 0 766 434" fill="none" xmlns="http://www.w3.org/2000/svg">
<rect width="766" height="434" fill="#0137FF"/>
<path d="M266.622 216.662L249.342 198.969H241.773V183H210.904L221.572 193.758C214.024 201.369 206.522 208.922 199 216.502L210.286 227.877L232.852 205.132L244.164 216.534L221.748 239.13L232.967 250.622H255.46L244.185 239.257L266.622 216.662Z" fill="white"/>
<g clip-path="url(#clip0_1161_3784)">
<path d="M324.443 205.757V198.698H289.265V238.546H298.474V222.664H322.784V215.662H298.474V205.757H324.443ZM328.152 198.698V238.546H337.362V198.698H328.152ZM378.534 231.487H352.622V198.698H343.355V238.546H378.534V231.487ZM422.499 198.698L409.801 229.324L397.159 198.698H382.802V238.546H392.011V207.066L405.453 238.546H414.205L427.647 207.066V238.546H436.857V198.698H422.499ZM478.554 231.487H452.07V221.582H476.38V214.58H452.07V205.757H477.982V198.698H442.86V238.546H478.554V231.487ZM515.356 198.698V227.218L493.162 198.698H482.865V238.546H492.075V210.083L514.269 238.546H524.622V198.698H515.356ZM567.873 198.698H528.347V205.757H543.505V238.546H552.715V205.757H567.873V198.698Z" fill="white"/>
</g>
<defs>
<clipPath id="clip0_1161_3784">
<rect width="278.939" height="39.8484" fill="white" transform="translate(288.961 198.698)"/>
</clipPath>
</defs>
</svg>
