<svg width="943" height="227" viewBox="0 0 943 227" fill="none" xmlns="http://www.w3.org/2000/svg">
<g clip-path="url(#clip0_837_1320)">
<path d="M123.826 227.013C95.8168 227.013 80.5389 206.128 81.341 183.636H62.1164L55.5214 225.405H44.2285L59.1626 131.1H70.4555L63.8606 172.856H82.8179C88.4707 150.504 107.695 129.479 138.213 129.479C168.73 129.479 184.046 154.268 180.227 178.929C176.267 203.028 157.845 227.013 123.826 227.013ZM124.501 216.232C150.321 216.232 165.777 197.912 168.87 178.24C171.697 160.455 162.823 140.247 137.538 140.247C111.731 140.247 96.2624 158.567 93.1687 178.24C90.355 196.024 99.2288 216.232 124.501 216.232Z" fill="#FFC513"/>
<path d="M247.96 186.864L246.344 197.07H198.346L199.962 186.864H247.96Z" fill="#FFC513"/>
<path d="M327.353 129.466C337.029 129.466 345.364 131.622 352.358 135.934L350.741 146.842C345.101 142.403 337.157 140.247 328.563 140.247C308.791 140.247 286.345 152.367 282.309 176.887C277.866 204.508 298.033 216.232 315.92 216.232C324.922 216.352 333.774 213.925 341.46 209.228L339.588 221.489C331.784 225.392 321.968 227.013 312.852 227.013C290.266 227.013 265.529 209.904 271.169 175.548C275.931 145.771 303.775 129.466 327.353 129.466Z" fill="#FFC513"/>
<path d="M442.269 131.087L440.525 141.867H388.325L383.487 172.486H431.625L430.009 183.266H381.87L376.905 214.65H429.881L428.124 225.431H363.855L378.79 131.125L442.269 131.087Z" fill="#FFC513"/>
<path d="M501.979 131.087C520.809 131.087 539.626 138.359 535.87 162.203C532.242 185.512 513.284 191.98 491.501 191.98H470.392L465.146 225.392H453.854L468.775 131.087H501.979ZM501.317 141.867H478.324L472.136 181.199H493.245C509.249 181.199 522.146 177.028 524.705 160.863C527.238 145.095 513.819 141.867 501.317 141.867Z" fill="#FFC513"/>
<path d="M602.839 131.087C620.179 131.087 633.764 139.711 631.205 155.875C630.507 160.668 628.392 165.141 625.134 168.718C621.875 172.295 617.622 174.811 612.922 175.943C620.179 178.099 630.403 184.568 627.984 200.183C624.623 221.336 603.921 225.38 589.535 225.38H549.596L564.517 131.074L602.839 131.087ZM597.199 182.016H567.751L562.658 214.612H588.478C599.643 214.612 614.425 213.4 616.984 197.644C619.237 183.202 605.665 182.016 597.263 182.016H597.199ZM600.687 141.867H574.066L569.495 171.21H598.676C609.154 171.21 618.028 166.898 619.785 155.901C621.542 144.903 613.33 141.867 600.687 141.867Z" fill="#FFC513"/>
<path d="M727.9 225.392H716.607L727.365 157.623C727.739 154.767 728.274 151.934 728.969 149.139L660.678 225.392H649.461L664.382 131.087H675.675L664.917 198.703C664.522 201.535 663.988 204.495 663.313 207.328L731.618 131.074H742.77L727.9 225.392Z" fill="#FFC513"/>
<path d="M817.199 129.466C826.875 129.466 835.21 131.622 842.204 135.934L840.587 146.842C834.947 142.403 827.015 140.247 818.408 140.247C798.636 140.247 776.191 152.367 772.155 176.887C767.712 204.508 787.891 216.232 805.766 216.232C814.771 216.351 823.627 213.923 831.318 209.228L829.434 221.489C821.63 225.392 811.814 227.013 802.698 227.013C780.112 227.013 755.375 209.904 761.015 175.548C765.84 145.771 793.671 129.466 817.199 129.466Z" fill="#FFC513"/>
<path d="M0 160.583C6.44506 151.217 13.641 142.394 21.5163 134.2C29.3262 125.887 38.1559 118.599 47.7943 112.511C52.6834 109.49 57.9204 107.073 63.3904 105.316C64.7527 104.831 66.1912 104.563 67.579 104.193C68.9667 103.823 70.4308 103.619 71.8568 103.479L80.387 102.803C91.7435 102.19 103.062 101.82 114.393 101.527C159.692 100.468 204.991 100.149 250.289 99.8428C340.887 99.2985 431.48 99.1411 522.07 99.3708L521.955 109.768C431.408 107.982 340.849 106.494 250.277 105.303C204.991 104.793 159.704 104.282 114.444 104.512C103.126 104.512 91.7944 104.716 80.527 105.125L72.1242 105.635C70.7365 105.75 69.387 106.018 68.0247 106.234C66.6624 106.451 65.3001 106.808 63.9888 107.242C58.6464 108.864 53.5172 111.121 48.7109 113.966C39.0775 119.834 30.2225 126.898 22.3565 134.991C14.3668 143.003 7.04311 151.656 0.458317 160.863L0 160.583Z" fill="#FFC513"/>
<path d="M323.852 99.6259C323.852 99.6259 336.125 75.9856 353.414 78.5117C362.353 79.9611 371.111 82.3649 379.539 85.6817C380.354 85.9942 381.06 86.539 381.57 87.2489C382.08 87.9588 382.371 88.8026 382.407 89.6763C382.444 90.5501 382.224 91.4155 381.776 92.1656C381.327 92.9158 380.669 93.5179 379.883 93.8977C374.078 96.6917 364.605 99.6259 350.601 99.6259H323.852Z" fill="#FFC513"/>
<path d="M415.291 0C329.824 22.5941 261.15 95.1734 261.15 95.1734H308.499C308.499 95.1734 292.763 86.3194 313.986 71.2269C335.21 56.1344 393.38 12.2347 415.966 11.5585L573.404 21.8414L820.511 12.9109L415.291 0Z" fill="#FFC513"/>
<path d="M943 71.8777L712.318 56.0963L573.365 21.8032L475.498 15.4243C475.498 15.4243 683.57 43.0833 678.783 81.4971C678.783 81.4971 633.828 49.9598 567.369 50.6742C567.369 50.6742 651.168 63.1387 668.024 85.1842C668.024 85.1842 665.3 102.815 630.174 106.184L845.108 110.304L866.331 78.3332L795.824 71.9543L943 71.8777Z" fill="#FFC513"/>
</g>
<defs>
<clipPath id="clip0_837_1320">
<rect width="943" height="227" fill="white"/>
</clipPath>
</defs>
</svg>
