<svg xmlns="http://www.w3.org/2000/svg"><symbol fill="none" id="icon-phone" viewBox="0 0 24 24"><title>phone</title><path d="M9.502 4.257A2 2 0 0 0 7.646 3H4.895A1.895 1.895 0 0 0 3 4.895C3 13.789 10.21 21 19.105 21A1.895 1.895 0 0 0 21 19.105v-2.751a2 2 0 0 0-1.257-1.857l-2.636-1.054a2 2 0 0 0-2.023.32l-.68.568a2.001 2.001 0 0 1-2.696-.122L9.792 12.29a2 2 0 0 1-.123-2.694l.567-.68a2 2 0 0 0 .322-2.024L9.502 4.257Z" stroke-width="2" stroke-linecap="round" stroke-linejoin="round"/></symbol><symbol id="icon-telegram" viewBox="0 0 100 100"><title>telegram</title><style>.st0{fill:#fff}.st1{fill:#f5bb41}.st2{fill:#2167d1}.st3{fill:#3d84f3}.st4{fill:#4ca853}.st5{fill:#398039}.st6{fill:#d74f3f}.st7{fill:#d43c89}.st8{fill:#b2005f}.st9{stroke:#000}.st10,.st11,.st9{fill:none;stroke-width:3;stroke-linecap:round;stroke-linejoin:round;stroke-miterlimit:10}.st10{fill-rule:evenodd;clip-rule:evenodd;stroke:#000}.st11{stroke:#040404}.st11,.st12,.st13{fill-rule:evenodd;clip-rule:evenodd}.st13{fill:#040404}.st14{fill:url(#SVGID_1_)}.st15{fill:url(#SVGID_2_)}.st16{fill:url(#SVGID_3_)}.st17{fill:url(#SVGID_4_)}.st18{fill:url(#SVGID_5_)}.st19{fill:url(#SVGID_6_)}.st20{fill:url(#SVGID_7_)}.st21{fill:url(#SVGID_8_)}.st22{fill:url(#SVGID_9_)}.st23{fill:url(#SVGID_10_)}.st24{fill:url(#SVGID_11_)}.st25{fill:url(#SVGID_12_)}.st26{fill:url(#SVGID_13_)}.st27{fill:url(#SVGID_14_)}.st28{fill:url(#SVGID_15_)}.st29{fill:url(#SVGID_16_)}.st30{fill:url(#SVGID_17_)}.st31{fill:url(#SVGID_18_)}.st32{fill:url(#SVGID_19_)}.st33{fill:url(#SVGID_20_)}.st34{fill:url(#SVGID_21_)}.st35{fill:url(#SVGID_22_)}.st36{fill:url(#SVGID_23_)}.st37{fill:url(#SVGID_24_)}.st38{fill:url(#SVGID_25_)}.st39{fill:url(#SVGID_26_)}.st40{fill:url(#SVGID_27_)}.st41{fill:url(#SVGID_28_)}.st42{fill:url(#SVGID_29_)}.st43{fill:url(#SVGID_30_)}.st44{fill:url(#SVGID_31_)}.st45{fill:url(#SVGID_32_)}.st46{fill:url(#SVGID_33_)}.st47{fill:url(#SVGID_34_)}.st48{fill:url(#SVGID_35_)}.st49{fill:url(#SVGID_36_)}.st50{fill:url(#SVGID_37_)}.st51{fill:url(#SVGID_38_)}.st52{fill:url(#SVGID_39_)}.st53{fill:url(#SVGID_40_)}.st54{fill:url(#SVGID_41_)}.st55{fill:url(#SVGID_42_)}.st56{fill:url(#SVGID_43_)}.st57{fill:url(#SVGID_44_)}.st58{fill:url(#SVGID_45_)}.st59{fill:#040404}.st60{fill:url(#SVGID_46_)}.st61{fill:url(#SVGID_47_)}.st62{fill:url(#SVGID_48_)}.st63{fill:url(#SVGID_49_)}.st64{fill:url(#SVGID_50_)}.st65{fill:url(#SVGID_51_)}.st66{fill:url(#SVGID_52_)}.st67{fill:url(#SVGID_53_)}.st68{fill:url(#SVGID_54_)}.st69{fill:url(#SVGID_55_)}.st70{fill:url(#SVGID_56_)}.st71{fill:url(#SVGID_57_)}.st72{fill:url(#SVGID_58_)}.st73{fill:url(#SVGID_59_)}.st74{fill:url(#SVGID_60_)}.st75{fill:url(#SVGID_61_)}.st76{fill:url(#SVGID_62_)}.st77,.st78{fill:none;stroke-miterlimit:10}.st77{stroke:#000;stroke-width:3}.st78{stroke:#fff}.st79{fill:#4bc9ff}.st80{fill:#50d}.st81{fill:#ff3a00}.st82{fill:#e6162d}.st83{fill:#f1f1f1}.st84{fill:#f93}.st85{fill:#b92b27}.st86{fill:#00aced}.st87{fill:#bd2125}.st88{fill:#1877f2}.st89{fill:#6665d2}.st90{fill:#ce3056}.st91{fill:#5bb381}.st92{fill:#61c3ec}.st93{fill:#e4b34b}.st94{fill:#181ef2}.st95{fill:red}.st96{fill:#fe466c}.st97{fill:#fa4778}.st98{fill:#f70}.st99{fill-rule:evenodd;clip-rule:evenodd;fill:#1f6bf6}.st100{fill:#520094}.st101{fill:#4477e8}.st102{fill:#3d1d1c}.st103{fill:#ffe812}.st104{fill:#344356}.st105{fill:#00cc76}.st106{fill-rule:evenodd;clip-rule:evenodd;fill:#345e90}.st107{fill:#1f65d8}.st108{fill:#eb3587}.st109{fill-rule:evenodd;clip-rule:evenodd;fill:#603a88}.st110{fill:#e3ce99}.st111{fill:#783af9}.st112{fill:#ff515e}.st113{fill:#ff4906}.st114{fill:#503227}.st115{fill:#4c7bd9}.st116{fill:#69c9d0}.st118{fill:#eb4f4a}.st119{fill:#513728}.st120{fill:#f60}.st121{fill-rule:evenodd;clip-rule:evenodd;fill:#b61438}.st122{fill:#fffc00}.st123{fill:#141414}.st124{fill:#94d137}.st125,.st126{fill-rule:evenodd;clip-rule:evenodd;fill:#f1f1f1}.st126{fill:#66e066}.st127{fill:#2d8cff}.st128{fill:#f1a300}.st129{fill:#4ba2f2}.st130{fill:#1a5099}.st131{fill:#ee6060}.st132{fill-rule:evenodd;clip-rule:evenodd;fill:#f48120}.st133{fill:#222}.st134{fill:url(#SVGID_63_)}.st135{fill:#0077b5}.st136{fill:#fc0}.st137{fill:#eb3352}.st138{fill:#f9d265}.st139{fill:#f5b955}.st140{fill:#dd2a7b}.st141{fill:#66e066}.st142{fill:#eb4e00}.st143{fill:#ffc794}.st144{fill:#b5332a}.st145{fill:#4e85eb}.st146{fill:#58a45c}.st147{fill:#f2bc42}.st148{fill:#d85040}.st149{fill:#464eb8}.st150{fill:#7b83eb}</style><path d="M88.723 12.142C76.419 17.238 23.661 39.091 9.084 45.047c-9.776 3.815-4.053 7.392-4.053 7.392s8.345 2.861 15.499 5.007c7.153 2.146 10.968-.238 10.968-.238l33.62-22.652c11.922-8.107 9.061-1.431 6.199 1.431-6.199 6.2-16.452 15.975-25.036 23.844-3.815 3.338-1.908 6.199-.238 7.63 6.199 5.246 23.129 15.976 24.082 16.691 5.037 3.566 14.945 8.699 16.452-2.146l5.961-37.435c1.908-12.637 3.815-24.321 4.053-27.659.716-8.108-7.868-4.77-7.868-4.77z" style="fill:#1b92d1" id="Layer_2"/></symbol><symbol id="icon-vk" viewBox="0 0 1024 1024"><title>vk</title><circle cx="512" cy="512" r="512" style="fill:#2787f5"/><path d="M585.83 271.5H438.17c-134.76 0-166.67 31.91-166.67 166.67v147.66c0 134.76 31.91 166.67 166.67 166.67h147.66c134.76 0 166.67-31.91 166.67-166.67V438.17c0-134.76-32.25-166.67-166.67-166.67zm74 343.18h-35c-13.24 0-17.31-10.52-41.07-34.62-20.71-20-29.87-22.74-35-22.74-7.13 0-9.17 2-9.17 11.88v31.57c0 8.49-2.72 13.58-25.12 13.58-37 0-78.07-22.4-106.93-64.16-43.45-61.1-55.33-106.93-55.33-116.43 0-5.09 2-9.84 11.88-9.84h35c8.83 0 12.22 4.07 15.61 13.58 17.31 49.9 46.17 93.69 58 93.69 4.41 0 6.45-2 6.45-13.24v-51.6c-1.36-23.76-13.92-25.8-13.92-34.28 0-4.07 3.39-8.15 8.83-8.15h55c7.47 0 10.18 4.07 10.18 12.9v69.58c0 7.47 3.39 10.18 5.43 10.18 4.41 0 8.15-2.72 16.29-10.86 25.12-28.17 43.11-71.62 43.11-71.62 2.38-5.09 6.45-9.84 15.28-9.84h35c10.52 0 12.9 5.43 10.52 12.9-4.41 20.37-47.18 80.79-47.18 80.79-3.73 6.11-5.09 8.83 0 15.61 3.73 5.09 16 15.61 24.1 25.12 14.94 17 26.48 31.23 29.53 41.07 3.45 9.84-1.65 14.93-11.49 14.93z" style="fill:#fff"/></symbol></svg>