<svg width="71" height="16" viewBox="0 0 71 16" fill="none" xmlns="http://www.w3.org/2000/svg">
<path d="M2.08444 15.45C1.71758 15.45 1.36739 15.4117 1.03388 15.3349C0.711488 15.2581 0.366861 15.1429 0 14.9893L1.11726 13.163C1.46189 13.3495 1.78984 13.4427 2.10111 13.4427C2.36792 13.4427 2.57915 13.3769 2.73478 13.2452C2.89042 13.1136 2.99047 12.8997 3.03494 12.6036L3.90207 7.27254H2.15114L2.46797 5.28164H4.2189L4.56909 3.0933C4.72473 2.14995 5.09159 1.4589 5.66967 1.02013C6.24776 0.581365 6.97592 0.361982 7.85416 0.361982C8.22102 0.361982 8.56565 0.400374 8.88805 0.477158C9.22156 0.553942 9.57174 0.669118 9.9386 0.822686L8.82134 2.64905C8.47672 2.46257 8.14876 2.36934 7.83749 2.36934C7.30387 2.36934 6.9926 2.64905 6.90366 3.20848L6.57015 5.28164H8.35443L8.03759 7.27254H6.25332L5.36951 12.7187C5.21388 13.6511 4.84701 14.3367 4.26893 14.7754C3.69085 15.2252 2.96268 15.45 2.08444 15.45Z" fill="#5CF39B"/>
<path d="M15.3626 12.8833C14.1842 12.8833 13.1614 12.5706 12.2943 11.9454L11.5606 12.6694L10.4766 11.8467L11.3438 10.9911C10.7546 10.1684 10.46 9.18666 10.46 8.04587C10.46 7.10252 10.6656 6.26338 11.077 5.52845C11.4883 4.79352 12.0664 4.22312 12.8112 3.81726C13.5561 3.4114 14.4065 3.20848 15.3626 3.20848C16.5187 3.20848 17.5193 3.50464 18.3642 4.09698L19.298 3.17557L20.3819 3.99825L19.3313 5.03484C19.9539 5.86849 20.2652 6.87217 20.2652 8.04587C20.2652 8.98922 20.0595 9.82836 19.6482 10.5633C19.2368 11.2982 18.6588 11.8686 17.9139 12.2745C17.1691 12.6803 16.3186 12.8833 15.3626 12.8833ZM17.347 5.10065C16.7911 4.71673 16.1296 4.52477 15.3626 4.52477C14.6955 4.52477 14.1008 4.67286 13.5783 4.96902C13.0558 5.26519 12.65 5.68202 12.361 6.21951C12.0719 6.75699 11.9274 7.36578 11.9274 8.04587C11.9274 8.76983 12.0886 9.40604 12.411 9.9545L17.347 5.10065ZM15.3626 11.567C16.0296 11.567 16.6243 11.4189 17.1468 11.1227C17.6693 10.8265 18.0751 10.4097 18.3642 9.87223C18.6532 9.33474 18.7977 8.72596 18.7977 8.04587C18.7977 7.289 18.6254 6.63085 18.2808 6.07142L13.3115 10.9582C13.9007 11.364 14.5844 11.567 15.3626 11.567Z" fill="#5CF39B"/>
<path d="M22.4343 4.12988H24.7855V5.512H24.9189C25.2413 4.95257 25.5582 4.54123 25.8694 4.27797C26.1918 4.01471 26.592 3.88308 27.0701 3.88308C27.2702 3.88308 27.4369 3.90502 27.5703 3.94889L27.3202 6.44986C27.0312 6.37307 26.7977 6.33468 26.6198 6.33468C26.3641 6.33468 26.1362 6.38404 25.9361 6.48277C25.7472 6.58149 25.5748 6.71312 25.4192 6.87766C25.2747 7.04219 25.0635 7.29448 24.7855 7.63453V12.6036H22.4343V4.12988Z" fill="#5CF39B"/>
<path d="M29.0447 4.12988H31.3459V5.44618C32.024 4.41508 32.9412 3.89953 34.0974 3.89953C34.7533 3.89953 35.3091 4.0531 35.7649 4.36024C36.2318 4.6564 36.5709 5.0842 36.7821 5.64363C37.1712 5.04032 37.6048 4.60156 38.0828 4.32733C38.572 4.04213 39.1278 3.89953 39.7504 3.89953C40.6731 3.89953 41.3901 4.17376 41.9015 4.72222C42.424 5.25971 42.6853 6.01109 42.6853 6.97638V12.6036H40.334V7.33836C40.334 6.89959 40.2228 6.55955 40.0005 6.31823C39.7893 6.06594 39.5002 5.93979 39.1334 5.93979C38.6776 5.93979 38.2551 6.12627 37.866 6.49922C37.4769 6.87217 37.1879 7.34933 36.9989 7.93069V12.6036H34.6477V7.33836C34.6477 6.91056 34.5365 6.57052 34.3142 6.31823C34.0918 6.06594 33.7972 5.93979 33.4304 5.93979C33.019 5.93979 32.6299 6.09336 32.2631 6.4005C31.9073 6.69666 31.6183 7.11898 31.3959 7.66743V12.6036H29.0447V4.12988Z" fill="#5CF39B"/>
<path d="M47.6272 12.8339C46.7156 12.8339 45.9986 12.5597 45.4761 12.0112C44.9536 11.4628 44.6923 10.7114 44.6923 9.75706V4.12988H47.0436V9.37862C47.0436 9.82836 47.1547 10.1794 47.3771 10.4317C47.5994 10.673 47.8996 10.7936 48.2775 10.7936C48.6555 10.7936 49.0168 10.673 49.3615 10.4317C49.7172 10.1903 50.0118 9.86675 50.2453 9.46089V4.12988H52.5965V12.6036H50.2453V11.4847C49.9229 11.9125 49.5504 12.2471 49.128 12.4884C48.7167 12.7187 48.2164 12.8339 47.6272 12.8339Z" fill="#5CF39B"/>
<path d="M53.5742 12.6036L57.4263 3.94889L56.976 2.71486C56.7982 2.24319 56.6036 1.87572 56.3924 1.61246C56.1812 1.33824 55.8365 1.20112 55.3585 1.20112C55.1584 1.20112 54.9805 1.21209 54.8249 1.23403C54.6804 1.25597 54.547 1.27791 54.4247 1.29984V0.13163C54.5803 0.0987224 54.7526 0.0712995 54.9416 0.0493615C55.1306 0.0164538 55.3252 0 55.5253 0C56.1033 0 56.5647 0.0987224 56.9093 0.296167C57.2651 0.493612 57.5597 0.795263 57.7931 1.20112C58.0377 1.60698 58.2712 2.12801 58.4935 2.76422L61.3784 10.6949C61.5896 11.2873 61.8675 11.5834 62.2121 11.5834C62.3011 11.5834 62.39 11.5725 62.479 11.5505C62.579 11.5286 62.6568 11.5121 62.7124 11.5012V12.5706C62.5901 12.6255 62.4456 12.6694 62.2788 12.7023C62.1232 12.7461 61.9509 12.7681 61.7619 12.7681C61.3506 12.7681 61.0226 12.6694 60.778 12.4719C60.5446 12.2635 60.3389 11.918 60.1611 11.4353L58.9437 8.06232C58.8548 7.79906 58.7492 7.50838 58.6269 7.19028C58.5157 6.8612 58.4101 6.5431 58.3101 6.23596C58.2211 5.91786 58.1544 5.6546 58.11 5.44618H58.0433C57.9432 5.8301 57.8098 6.24144 57.6431 6.68021C57.4874 7.11898 57.3151 7.55226 57.1261 7.98005L55.0917 12.6036H53.5742Z" fill="#5CF39B"/>
<path d="M66.2808 12.8504C65.3915 12.8504 64.6855 12.4774 64.163 11.7315C63.6405 10.9856 63.3793 9.97096 63.3793 8.68757C63.3793 7.12995 63.7795 5.94528 64.5799 5.13356C65.3804 4.31087 66.531 3.89953 68.0318 3.89953C68.8767 3.89953 69.8661 4.03116 71 4.29442V12.6036H68.7655L68.8155 11.2543H68.7488C68.4598 11.7699 68.104 12.1648 67.6816 12.439C67.2702 12.7132 66.8033 12.8504 66.2808 12.8504ZM66.7811 10.8265C67.1257 10.8265 67.4648 10.6456 67.7983 10.2836C68.1318 9.92159 68.4431 9.43895 68.7321 8.83565V6.07142C68.3764 5.9727 68.0206 5.92334 67.6649 5.92334C66.9979 5.92334 66.4921 6.14821 66.1474 6.59794C65.8139 7.04768 65.6472 7.71131 65.6472 8.58884C65.6472 9.2799 65.7472 9.82836 65.9473 10.2342C66.1474 10.6291 66.4254 10.8265 66.7811 10.8265Z" fill="#5CF39B"/>
</svg>
