<svg width="501" height="385" viewBox="0 0 501 385" fill="none" xmlns="http://www.w3.org/2000/svg">
<path d="M438.967 124.84C426.641 129.703 414.852 131.906 406.201 138.289C385.99 153.182 380.554 183.12 391.732 205.839C402.679 228.103 429.78 241.704 453.283 236.841C481.991 230.914 498.833 212.07 500.824 185.096C502.125 167.163 496.154 152.194 485.206 138.365C455.273 100.676 425.187 62.988 395.713 24.8437C369.454 -9.04548 321.071 -6.23404 294.123 31.0745C285.702 42.7001 277.051 54.1738 267.482 64.8117C257.07 76.3614 245.051 76.1334 234.639 64.4318C224.84 53.414 215.653 41.7123 206.849 29.9347C186.332 2.58018 157.165 -6.68995 128.762 6.91132C120.647 10.7865 112.992 17.1693 107.327 24.2358C75.5561 63.7479 44.2448 103.64 13.2397 143.76C-6.97107 169.975 -2.22461 206.371 23.0388 224.988C49.1443 244.212 85.8911 239.121 105.872 213.058C126.466 186.235 145.834 158.349 173.701 138.213C194.983 122.788 218.486 117.621 243.902 124.08C244.132 125.144 244.362 126.283 244.591 127.347C241.299 127.879 238.084 128.563 234.792 128.943C206.773 132.59 187.404 160.856 193.146 188.287C198.581 213.97 212.897 231.522 239.079 236.461C264.343 241.248 284.86 231.066 300.477 211.234C321.147 185.02 340.21 157.437 367.999 137.681C385.607 125.144 405.129 119.369 426.871 121.8C430.775 122.256 434.603 123.7 438.89 124.764L438.967 124.84Z" fill="#FFC9C3"/>
<path d="M2.66164 308.694H11.0622V316.653H11.2722C15.3325 310.509 21.1778 307.437 28.8083 307.437C32.1685 307.437 35.2137 308.135 37.9439 309.532C40.6741 310.928 42.5992 313.302 43.7193 316.653C45.5394 313.721 47.9195 311.452 50.8597 309.846C53.8699 308.24 57.1601 307.437 60.7304 307.437C63.4605 307.437 65.9107 307.751 68.0808 308.38C70.321 308.938 72.2111 309.846 73.7512 311.103C75.3613 312.359 76.5864 314 77.4264 316.025C78.3365 317.98 78.7915 320.353 78.7915 323.146V362.837H69.866V327.335C69.866 325.659 69.726 324.089 69.4459 322.622C69.1659 321.156 68.6409 319.9 67.8708 318.852C67.1008 317.735 66.0157 316.862 64.6156 316.234C63.2855 315.606 61.5354 315.292 59.3653 315.292C54.955 315.292 51.4898 316.548 48.9696 319.062C46.4495 321.575 45.1894 324.926 45.1894 329.115V362.837H36.2638V327.335C36.2638 325.59 36.0888 323.984 35.7388 322.518C35.4587 321.051 34.9337 319.795 34.1637 318.748C33.3936 317.63 32.3435 316.793 31.0135 316.234C29.7534 315.606 28.1083 315.292 26.0781 315.292C23.488 315.292 21.2478 315.815 19.3577 316.862C17.5376 317.91 16.0325 319.166 14.8424 320.633C13.7223 322.099 12.8823 323.635 12.3223 325.241C11.8322 326.777 11.5872 328.068 11.5872 329.115V362.837H2.66164V308.694Z" fill="#FFC9C3"/>
<path d="M135.027 362.628C133.487 363.535 131.352 363.989 128.621 363.989C126.311 363.989 124.456 363.361 123.056 362.104C121.726 360.778 121.061 358.648 121.061 355.716C118.611 358.648 115.741 360.778 112.45 362.104C109.23 363.361 105.73 363.989 101.95 363.989C99.4995 363.989 97.1543 363.71 94.9142 363.151C92.744 362.593 90.8539 361.72 89.2438 360.533C87.6337 359.346 86.3386 357.81 85.3586 355.925C84.4485 353.97 83.9935 351.631 83.9935 348.909C83.9935 345.837 84.5185 343.323 85.5686 341.368C86.6186 339.413 87.9837 337.843 89.6638 336.656C91.4139 335.399 93.3741 334.456 95.5442 333.828C97.7844 333.2 100.06 332.676 102.37 332.257C104.82 331.768 107.13 331.419 109.3 331.21C111.54 330.931 113.5 330.582 115.18 330.163C116.861 329.674 118.191 329.011 119.171 328.173C120.151 327.265 120.641 325.974 120.641 324.298C120.641 322.343 120.256 320.772 119.486 319.585C118.786 318.398 117.841 317.491 116.651 316.862C115.531 316.234 114.235 315.815 112.765 315.606C111.365 315.396 109.965 315.292 108.565 315.292C104.785 315.292 101.635 316.025 99.1144 317.491C96.5943 318.887 95.2292 321.575 95.0192 325.555H86.0936C86.2336 322.203 86.9337 319.376 88.1937 317.072C89.4538 314.768 91.1339 312.918 93.2341 311.521C95.3342 310.055 97.7144 309.008 100.375 308.38C103.105 307.751 106.01 307.437 109.09 307.437C111.54 307.437 113.955 307.612 116.336 307.961C118.786 308.31 120.991 309.043 122.951 310.16C124.911 311.207 126.486 312.708 127.676 314.663C128.866 316.618 129.461 319.166 129.461 322.308V350.165C129.461 352.26 129.566 353.796 129.776 354.773C130.056 355.751 130.896 356.239 132.297 356.239C133.067 356.239 133.977 356.065 135.027 355.716V362.628ZM120.536 334.875C119.416 335.713 117.946 336.341 116.126 336.76C114.305 337.109 112.38 337.424 110.35 337.703C108.39 337.912 106.395 338.192 104.365 338.541C102.335 338.82 100.515 339.309 98.9044 340.007C97.2943 340.705 95.9642 341.717 94.9142 343.044C93.9341 344.301 93.4441 346.046 93.4441 348.28C93.4441 349.746 93.7241 351.003 94.2841 352.05C94.9142 353.028 95.6842 353.831 96.5943 354.459C97.5743 355.087 98.6944 355.541 99.9545 355.82C101.215 356.1 102.545 356.239 103.945 356.239C106.885 356.239 109.405 355.855 111.505 355.087C113.605 354.25 115.32 353.237 116.651 352.05C117.981 350.794 118.961 349.467 119.591 348.071C120.221 346.605 120.536 345.243 120.536 343.986V334.875Z" fill="#FFC9C3"/>
<path d="M159.4 370.063C158.35 372.716 157.3 374.95 156.25 376.766C155.27 378.581 154.149 380.047 152.889 381.164C151.699 382.351 150.334 383.189 148.794 383.678C147.324 384.236 145.609 384.515 143.649 384.515C142.599 384.515 141.549 384.446 140.499 384.306C139.449 384.166 138.433 383.922 137.453 383.573V375.404C138.223 375.753 139.098 376.033 140.079 376.242C141.129 376.521 142.004 376.661 142.704 376.661C144.524 376.661 146.029 376.207 147.219 375.299C148.479 374.462 149.424 373.24 150.054 371.634L153.729 362.523L132.203 308.694H142.284L158.14 352.993H158.35L173.576 308.694H183.026L159.4 370.063Z" fill="#FFC9C3"/>
<path d="M191.847 335.818C191.847 339.099 192.267 342.032 193.107 344.615C194.017 347.128 195.242 349.258 196.782 351.003C198.322 352.679 200.107 353.97 202.138 354.878C204.238 355.786 206.443 356.239 208.753 356.239C211.063 356.239 213.233 355.786 215.263 354.878C217.364 353.97 219.184 352.679 220.724 351.003C222.264 349.258 223.454 347.128 224.294 344.615C225.204 342.032 225.659 339.099 225.659 335.818C225.659 332.536 225.204 329.639 224.294 327.126C223.454 324.542 222.264 322.378 220.724 320.633C219.184 318.887 217.364 317.561 215.263 316.653C213.233 315.745 211.063 315.292 208.753 315.292C206.443 315.292 204.238 315.745 202.138 316.653C200.107 317.561 198.322 318.887 196.782 320.633C195.242 322.378 194.017 324.542 193.107 327.126C192.267 329.639 191.847 332.536 191.847 335.818ZM182.396 335.818C182.396 331.838 182.956 328.138 184.076 324.717C185.196 321.226 186.877 318.224 189.117 315.71C191.357 313.127 194.122 311.103 197.412 309.636C200.702 308.17 204.483 307.437 208.753 307.437C213.093 307.437 216.873 308.17 220.094 309.636C223.384 311.103 226.149 313.127 228.389 315.71C230.629 318.224 232.309 321.226 233.43 324.717C234.55 328.138 235.11 331.838 235.11 335.818C235.11 339.797 234.55 343.498 233.43 346.919C232.309 350.34 230.629 353.342 228.389 355.925C226.149 358.439 223.384 360.428 220.094 361.895C216.873 363.291 213.093 363.989 208.753 363.989C204.483 363.989 200.702 363.291 197.412 361.895C194.122 360.428 191.357 358.439 189.117 355.925C186.877 353.342 185.196 350.34 184.076 346.919C182.956 343.498 182.396 339.797 182.396 335.818Z" fill="#FFC9C3"/>
<path d="M240.383 308.694H248.784V317.281H248.994C252.704 310.719 258.584 307.437 266.635 307.437C270.205 307.437 273.18 307.926 275.56 308.903C277.94 309.881 279.866 311.242 281.336 312.988C282.806 314.733 283.821 316.828 284.381 319.271C285.011 321.645 285.326 324.298 285.326 327.23V362.837H276.4V326.183C276.4 322.832 275.42 320.179 273.46 318.224C271.5 316.269 268.805 315.292 265.375 315.292C262.644 315.292 260.264 315.71 258.234 316.548C256.274 317.386 254.629 318.573 253.299 320.109C251.969 321.645 250.954 323.46 250.254 325.555C249.624 327.579 249.309 329.814 249.309 332.257V362.837H240.383V308.694Z" fill="#FFC9C3"/>
<path d="M331.179 330.582C331.039 328.487 330.549 326.497 329.708 324.612C328.938 322.727 327.853 321.121 326.453 319.795C325.123 318.398 323.513 317.316 321.623 316.548C319.803 315.71 317.773 315.292 315.533 315.292C313.222 315.292 311.122 315.71 309.232 316.548C307.412 317.316 305.837 318.398 304.507 319.795C303.177 321.191 302.127 322.832 301.357 324.717C300.587 326.532 300.132 328.487 299.992 330.582H331.179ZM339.789 345.662C338.599 351.736 335.974 356.309 331.914 359.381C327.853 362.453 322.743 363.989 316.583 363.989C312.242 363.989 308.462 363.291 305.242 361.895C302.092 360.498 299.432 358.543 297.261 356.03C295.091 353.517 293.446 350.514 292.326 347.024C291.276 343.533 290.681 339.728 290.541 335.608C290.541 331.489 291.171 327.719 292.431 324.298C293.691 320.877 295.441 317.91 297.681 315.396C299.992 312.883 302.687 310.928 305.767 309.532C308.917 308.135 312.347 307.437 316.058 307.437C320.888 307.437 324.878 308.449 328.028 310.474C331.249 312.429 333.804 314.942 335.694 318.014C337.654 321.086 338.984 324.438 339.684 328.068C340.454 331.699 340.769 335.155 340.629 338.436H299.992C299.922 340.81 300.202 343.079 300.832 345.243C301.462 347.338 302.477 349.223 303.877 350.898C305.277 352.504 307.062 353.796 309.232 354.773C311.402 355.751 313.957 356.239 316.898 356.239C320.678 356.239 323.758 355.367 326.138 353.621C328.588 351.876 330.199 349.223 330.969 345.662H339.789Z" fill="#FFC9C3"/>
<path d="M354.423 336.237C354.423 338.75 354.738 341.229 355.368 343.672C356.068 346.046 357.083 348.175 358.413 350.061C359.813 351.946 361.563 353.447 363.663 354.564C365.834 355.681 368.354 356.239 371.224 356.239C374.234 356.239 376.789 355.646 378.889 354.459C380.989 353.272 382.705 351.736 384.035 349.851C385.365 347.896 386.31 345.697 386.87 343.253C387.5 340.81 387.815 338.331 387.815 335.818C387.815 333.165 387.5 330.616 386.87 328.173C386.24 325.659 385.225 323.46 383.825 321.575C382.495 319.69 380.744 318.189 378.574 317.072C376.404 315.885 373.779 315.292 370.699 315.292C367.689 315.292 365.133 315.885 363.033 317.072C360.933 318.259 359.253 319.83 357.993 321.785C356.733 323.739 355.823 325.974 355.263 328.487C354.703 331 354.423 333.584 354.423 336.237ZM396.425 362.837H387.5V355.506H387.29C385.82 358.508 383.51 360.673 380.359 361.999C377.209 363.326 373.744 363.989 369.964 363.989C365.764 363.989 362.088 363.221 358.938 361.685C355.858 360.149 353.268 358.09 351.168 355.506C349.137 352.923 347.597 349.921 346.547 346.5C345.497 343.079 344.972 339.448 344.972 335.608C344.972 331.768 345.462 328.138 346.442 324.717C347.492 321.296 349.032 318.329 351.063 315.815C353.163 313.232 355.753 311.207 358.833 309.741C361.983 308.205 365.623 307.437 369.754 307.437C371.154 307.437 372.659 307.577 374.269 307.856C375.879 308.135 377.489 308.624 379.099 309.322C380.709 309.951 382.215 310.823 383.615 311.94C385.085 312.988 386.31 314.314 387.29 315.92H387.5V288.063H396.425V362.837Z" fill="#FFC9C3"/>
<path d="M453 362.628C451.46 363.535 449.325 363.989 446.595 363.989C444.285 363.989 442.43 363.361 441.03 362.104C439.699 360.778 439.034 358.648 439.034 355.716C436.584 358.648 433.714 360.778 430.424 362.104C427.204 363.361 423.703 363.989 419.923 363.989C417.473 363.989 415.128 363.71 412.888 363.151C410.718 362.593 408.827 361.72 407.217 360.533C405.607 359.346 404.312 357.81 403.332 355.925C402.422 353.97 401.967 351.631 401.967 348.909C401.967 345.837 402.492 343.323 403.542 341.368C404.592 339.413 405.957 337.843 407.637 336.656C409.388 335.399 411.348 334.456 413.518 333.828C415.758 333.2 418.033 332.676 420.343 332.257C422.793 331.768 425.104 331.419 427.274 331.21C429.514 330.931 431.474 330.582 433.154 330.163C434.834 329.674 436.164 329.011 437.144 328.173C438.124 327.265 438.614 325.974 438.614 324.298C438.614 322.343 438.229 320.772 437.459 319.585C436.759 318.398 435.814 317.491 434.624 316.862C433.504 316.234 432.209 315.815 430.739 315.606C429.339 315.396 427.939 315.292 426.539 315.292C422.758 315.292 419.608 316.025 417.088 317.491C414.568 318.887 413.203 321.575 412.993 325.555H404.067C404.207 322.203 404.907 319.376 406.167 317.072C407.427 314.768 409.107 312.918 411.208 311.521C413.308 310.055 415.688 309.008 418.348 308.38C421.078 307.751 423.983 307.437 427.064 307.437C429.514 307.437 431.929 307.612 434.309 307.961C436.759 308.31 438.964 309.043 440.925 310.16C442.885 311.207 444.46 312.708 445.65 314.663C446.84 316.618 447.435 319.166 447.435 322.308V350.165C447.435 352.26 447.54 353.796 447.75 354.773C448.03 355.751 448.87 356.239 450.27 356.239C451.04 356.239 451.95 356.065 453 355.716V362.628ZM438.509 334.875C437.389 335.713 435.919 336.341 434.099 336.76C432.279 337.109 430.354 337.424 428.324 337.703C426.364 337.912 424.368 338.192 422.338 338.541C420.308 338.82 418.488 339.309 416.878 340.007C415.268 340.705 413.938 341.717 412.888 343.044C411.908 344.301 411.418 346.046 411.418 348.28C411.418 349.746 411.698 351.003 412.258 352.05C412.888 353.028 413.658 353.831 414.568 354.459C415.548 355.087 416.668 355.541 417.928 355.82C419.188 356.1 420.518 356.239 421.918 356.239C424.859 356.239 427.379 355.855 429.479 355.087C431.579 354.25 433.294 353.237 434.624 352.05C435.954 350.794 436.934 349.467 437.564 348.071C438.194 346.605 438.509 345.243 438.509 343.986V334.875Z" fill="#FFC9C3"/>
<path d="M477.373 370.063C476.323 372.716 475.273 374.95 474.223 376.766C473.243 378.581 472.123 380.047 470.863 381.164C469.673 382.351 468.308 383.189 466.768 383.678C465.298 384.236 463.582 384.515 461.622 384.515C460.572 384.515 459.522 384.446 458.472 384.306C457.422 384.166 456.407 383.922 455.427 383.573V375.404C456.197 375.753 457.072 376.033 458.052 376.242C459.102 376.521 459.977 376.661 460.677 376.661C462.497 376.661 464.002 376.207 465.193 375.299C466.453 374.462 467.398 373.24 468.028 371.634L471.703 362.523L450.177 308.694H460.257L476.113 352.993H476.323L491.549 308.694H501L477.373 370.063Z" fill="#FFC9C3"/>
</svg>
